HIERARCHY
ROOT Hips
{
 OFFSET 0.000000 0.000000 0.000000
 CHANNELS 6 Xposition Yposition Zposition Yrotation Xrotation Zrotation
 JOINT Chest
 {
  OFFSET 0.000000 10.354800 0.006500
  CHANNELS 3 Yrotation Xrotation Zrotation
  JOINT Chest2
  {
   OFFSET 0.000000 10.435800 -0.013200
   CHANNELS 3 Yrotation Xrotation Zrotation
   JOINT Chest3
   {
    OFFSET 0.000000 10.393700 0.000000
    CHANNELS 3 Yrotation Xrotation Zrotation
    JOINT Chest4
    {
     OFFSET 0.000000 10.383100 0.000000
     CHANNELS 3 Yrotation Xrotation Zrotation
     JOINT Neck
     {
      OFFSET 0.000000 15.694000 0.000000
      CHANNELS 3 Yrotation Xrotation Zrotation
      JOINT Head
      {
       OFFSET 0.000000 9.711000 -0.028000
       CHANNELS 3 Yrotation Xrotation Zrotation
       End Site
       {
        OFFSET 0.000000 18.578700 -0.014800
       }
      }
     }
     JOINT RightCollar
     {
      OFFSET -3.157200 10.367500 0.000000
      CHANNELS 3 Yrotation Xrotation Zrotation
      JOINT RightShoulder
      {
       OFFSET -14.482500 0.000000 0.000000
       CHANNELS 3 Yrotation Xrotation Zrotation
       JOINT RightElbow
       {
        OFFSET 0.000000 -31.707800 0.000000
        CHANNELS 3 Yrotation Xrotation Zrotation
        JOINT RightWrist
        {
         OFFSET 0.000000 -25.659300 0.000000
         CHANNELS 3 Yrotation Xrotation Zrotation
         End Site
         {
          OFFSET 0.000000 -18.994300 0.000000
         }
        }
       }
      }
     }
     JOINT LeftCollar
     {
      OFFSET 3.157200 10.367500 0.000000
      CHANNELS 3 Yrotation Xrotation Zrotation
      JOINT LeftShoulder
      {
       OFFSET 14.482500 0.000000 0.000000
       CHANNELS 3 Yrotation Xrotation Zrotation
       JOINT LeftElbow
       {
        OFFSET 0.000000 -31.707800 0.000000
        CHANNELS 3 Yrotation Xrotation Zrotation
        JOINT LeftWrist
        {
         OFFSET 0.000000 -25.659300 0.000000
         CHANNELS 3 Yrotation Xrotation Zrotation
         End Site
         {
          OFFSET 0.000000 -18.994300 0.000000
         }
        }
       }
      }
     }
    }
   }
  }
 }
 JOINT RightHip
 {
  OFFSET -8.365600 -0.032100 -0.003200
  CHANNELS 3 Yrotation Xrotation Zrotation
  JOINT RightKnee
  {
   OFFSET 0.000000 -43.980000 0.003100
   CHANNELS 3 Yrotation Xrotation Zrotation
   JOINT RightAnkle
   {
    OFFSET 0.000000 -42.882800 0.005200
    CHANNELS 3 Yrotation Xrotation Zrotation
    JOINT RightToe
    {
     OFFSET 0.000000 -4.915500 10.826300
     CHANNELS 3 Yrotation Xrotation Zrotation
     End Site
     {
      OFFSET 0.000000 -1.517500 6.175900
     }
    }
   }
  }
 }
 JOINT LeftHip
 {
  OFFSET 8.365600 -0.032100 -0.003200
  CHANNELS 3 Yrotation Xrotation Zrotation
  JOINT LeftKnee
  {
   OFFSET 0.000000 -43.980000 0.003100
   CHANNELS 3 Yrotation Xrotation Zrotation
   JOINT LeftAnkle
   {
    OFFSET 0.000000 -42.882800 0.005200
    CHANNELS 3 Yrotation Xrotation Zrotation
    JOINT LeftToe
    {
     OFFSET 0.000000 -4.915500 10.826300
     CHANNELS 3 Yrotation Xrotation Zrotation
     End Site
     {
      OFFSET 0.000000 -1.517500 6.175900
     }
    }
   }
  }
 }
}
MOTION
Frames: 6
Frame Time: 0.008333
-6.854744 126.882962 13.022203 177.349452 -27.497333 -8.567304 0.227811 13.728757 3.730450 -0.004409 1.125826 0.334242 -0.022390 2.038435 0.535134 0.163982 12.446722 3.300442 -3.083904 17.780104 -2.021215 -2.776830 -6.928007 -1.485629 1.397240 4.761035 -4.280310 2.139442 -18.134103 -13.356197 154.052819 -52.833588 -147.827178 -11.863384 -23.854049 -23.955892 -3.860256 6.134889 2.419054 20.841237 -34.780328 3.003173 -153.867617 -78.203303 170.405916 9.542714 -7.846837 29.286393 0.937763 -50.509384 7.697003 -142.932682 78.690747 -136.315481 -0.000988 -20.086875 1.412434 0.011943 -0.026607 0.005421 -18.204189 -48.892758 18.904987 149.251704 77.048106 143.578788 -1.899736 -21.288307 -0.662946 0.027912 0.017749 0.012677
-6.859681 126.874546 12.999625 177.351912 -27.335927 -8.617976 0.209983 13.610293 3.770630 -0.009566 1.149214 0.328535 -0.024988 2.014659 0.537661 0.149052 12.374155 3.334404 -3.070531 17.791102 -2.018425 -2.777460 -6.911969 -1.513922 1.416606 4.793083 -4.296276 2.138688 -18.164025 -13.336731 152.935272 -52.475197 -147.173420 -11.618119 -23.760727 -24.004682 -3.863831 6.170574 2.410896 20.989216 -34.620443 2.830716 -154.396932 -78.152685 170.839048 9.555774 -7.859141 29.353672 0.901052 -50.638123 7.723353 -142.884941 78.697418 -136.241412 0.022317 -20.103559 1.420564 0.007151 -0.016319 0.003246 -18.230986 -49.070422 18.942056 149.181703 77.008298 143.577812 -1.878975 -21.292927 -0.651833 0.011023 0.004418 0.005005
-6.863769 126.864616 12.979489 177.335661 -27.156189 -8.663969 0.209837 13.536386 3.798640 -0.017317 1.112444 0.335514 -0.025965 1.989823 0.540603 0.144154 12.296611 3.371878 -3.040781 17.807176 -2.009401 -2.788991 -6.902790 -1.507608 1.415446 4.811700 -4.276544 2.175341 -18.158569 -13.367991 151.950824 -52.169226 -146.627449 -11.400093 -23.682658 -23.999703 -3.856730 6.206081 2.399659 21.120947 -34.453548 2.662714 -154.759204 -78.101314 171.098574 9.573051 -7.870288 29.426871 0.840022 -50.804248 7.787559 -142.875638 78.699311 -136.226234 0.019550 -20.089223 1.431400 0.012366 -0.028366 0.005612 -18.281990 -49.256958 19.021348 149.205523 76.967149 143.643023 -1.871480 -21.317843 -0.636750 0.006928 0.002747 0.003146
-6.867350 126.854787 12.958580 177.329354 -26.975539 -8.715440 0.211914 13.464141 3.831330 -0.017985 1.127727 0.327414 -0.029837 1.910016 0.556896 0.136455 12.219486 3.408776 -3.022960 17.833137 -2.014480 -2.725722 -6.893033 -1.441243 1.410476 4.810861 -4.207368 2.224817 -18.126383 -13.442522 151.095220 -51.932750 -146.161633 -11.211980 -23.636043 -23.952363 -3.864733 6.240184 2.387943 21.246928 -34.283835 2.512331 -154.999770 -78.064628 171.236464 9.597940 -7.888766 29.515170 0.809280 -50.952480 7.811011 -142.887600 78.725768 -136.206578 0.019413 -20.085899 1.444079 0.011175 -0.028705 0.005071 -18.374048 -49.432745 19.132519 149.246031 76.942442 143.705251 -1.884434 -21.332311 -0.612909 0.006968 0.002946 0.003164
-6.870920 126.845084 12.936717 177.323094 -26.797482 -8.764518 0.218357 13.373969 3.869513 -0.017678 1.131676 0.324065 -0.026146 1.917058 0.548739 0.132481 12.093245 3.460068 -2.974313 17.846401 -1.976776 -2.693790 -6.872939 -1.417103 1.408217 4.826836 -4.195328 2.246102 -18.109449 -13.421003 150.323124 -51.747718 -145.724532 -11.057929 -23.624092 -23.901843 -3.884543 6.268622 2.373325 21.341697 -34.116697 2.396125 -155.169345 -78.046888 171.316243 9.632907 -7.920289 29.626715 0.789009 -51.096755 7.824119 -142.911242 78.753903 -136.195189 0.019288 -20.088167 1.456968 0.009751 -0.028905 0.004425 -18.500055 -49.592395 19.276955 149.368106 76.926198 143.813768 -1.913140 -21.357558 -0.574299 0.006299 0.005047 0.002860
-6.873330 126.835988 12.913407 177.331645 -26.625154 -8.823365 0.206638 13.247710 3.918615 -0.008124 1.160792 0.317990 -0.025222 1.893692 0.551543 0.130876 12.014088 3.497832 -2.925019 17.863636 -1.935707 -2.680257 -6.853672 -1.401166 1.404234 4.853339 -4.179181 2.194787 -18.046340 -13.313937 149.687206 -51.539252 -145.305465 -10.937133 -23.637290 -23.893755 -3.916952 6.318926 2.334107 21.394645 -33.976375 2.333927 -155.314276 -78.050607 171.393894 9.677417 -7.968656 29.764399 0.811720 -51.207303 7.785869 -142.929126 78.811005 -136.140209 0.026890 -20.112476 1.466976 0.001779 -0.012709 0.000807 -18.586082 -49.763119 19.368469 149.392572 76.899502 143.869412 -1.908222 -21.375354 -0.556035 0.004178 0.003969 0.001897
